<svg xmlns="http://www.w3.org/2000/svg" width="19.338" height="18.038" viewBox="0 0 19.338 18.038">
  <g id="Q3_icons" data-name="Q3 icons" transform="translate(19.338) rotate(90)">
    <path id="Path_66" data-name="Path 66" d="M27.653,17.048,19.922,9.381a1.224,1.224,0,0,0-1.8,0l-7.731,7.667a1.353,1.353,0,0,0-.129,1.74,1.224,1.224,0,0,0,1.933.129l5.541-5.541V27.034a1.289,1.289,0,0,0,2.577,0V13.376l5.541,5.541a1.224,1.224,0,0,0,1.933-.129,1.353,1.353,0,0,0-.129-1.74Z" transform="translate(-10.001 -8.985)" fill="#1592e6"/>
  </g>
</svg>
