<svg xmlns="http://www.w3.org/2000/svg" width="12" height="12" viewBox="0 0 12 12">
  <g id="Layer_2" data-name="Layer 2" transform="translate(-0.5)">
    <g id="invisible_box" data-name="invisible box">
      <rect id="Rectangle_1224" data-name="Rectangle 1224" width="12" height="12" transform="translate(0.5)" fill="none"/>
    </g>
    <g id="icons_Q2" data-name="icons Q2" transform="translate(0.974 1.431)">
      <path id="Path_8326" data-name="Path 8326" d="M9.311,4.937a1.736,1.736,0,0,1,1.279.548,1.759,1.759,0,0,1,.548,1.279,2.771,2.771,0,0,1-.891,1.691L7.026,11.882,3.8,8.455a2.771,2.771,0,0,1-.891-1.691,1.759,1.759,0,0,1,.548-1.279,1.736,1.736,0,0,1,1.279-.548A1.994,1.994,0,0,1,6.227,5.965L6.821,6.97a.251.251,0,0,0,.411,0l.594-1.005A1.994,1.994,0,0,1,9.311,4.937m0-.937A2.953,2.953,0,0,0,7.026,5.485,2.953,2.953,0,0,0,4.741,4,2.769,2.769,0,0,0,2,6.764a3.721,3.721,0,0,0,1.142,2.33L6.866,13.07a.228.228,0,0,0,.32,0L10.91,9.095a3.721,3.721,0,0,0,1.142-2.33A2.765,2.765,0,0,0,9.311,4Z" transform="translate(-2 -4)" fill="#fff"/>
    </g>
  </g>
</svg>
