<svg xmlns="http://www.w3.org/2000/svg" width="21.5" height="17.594" viewBox="0 0 21.5 17.594">
  <g id="Group_211" data-name="Group 211" transform="translate(0.75 0.783)">
    <path id="Path_8290" data-name="Path 8290" d="M22,4.01A17.943,17.943,0,0,1,19,5a3.789,3.789,0,0,0-4.38-.737A3.933,3.933,0,0,0,12,8V9A9.392,9.392,0,0,1,4,5S-.182,12.433,8,16a9.856,9.856,0,0,1-6,2,13.425,13.425,0,0,0,10.034,1.517,11,11,0,0,0,7.651-7.742,13.84,13.84,0,0,0,.5-3.753c0-.249,1.51-2.772,1.818-4.013Z" transform="translate(-2 -3.899)" fill="none" stroke="#fff" strokeLinecap="round" strokeLinejoin="round" strokeWidth="1.5"/>
  </g>
</svg>
