<svg xmlns="http://www.w3.org/2000/svg" width="20.028" height="19.5" viewBox="0 0 20.028 19.5">
  <g id="Group_213" data-name="Group 213" transform="translate(1.014 0.75)">
    <path id="Path_8294" data-name="Path 8294" d="M16.882,7.842a4.882,4.882,0,1,0-9.764,0c0,4.273-.213,6.409-4.118,8.118,2,.882,2,.882,3,3,3,0,4,2,6,2s3-2,6-2c1-2.118,1-2.118,3-3-3.906-1.709-4.118-3.845-4.118-8.118ZM3,15.961c4-2.118,4-4.118,1-7.118m17,7.118c-4-2.118-4-4.118-1-7.118" transform="translate(-3 -2.96)" fill="none" stroke="#fff" strokeLinecap="round" strokeLinejoin="round" strokeWidth="1.5"/>
  </g>
</svg>
