<svg xmlns="http://www.w3.org/2000/svg" xmlns:xlink="http://www.w3.org/1999/xlink" width="60.715" height="48.826" viewBox="0 0 60.715 48.826">
  <defs>
    <filter id="Path_8304" x="0.823" y="0" width="59.892" height="48.826" filterUnits="userSpaceOnUse">
      <feOffset dy="3" input="SourceAlpha"/>
      <feGaussianBlur stdDeviation="3" result="blur"/>
      <feFlood flood-opacity="0.161"/>
      <feComposite operator="in" in2="blur"/>
      <feComposite in="SourceGraphic"/>
    </filter>
    <clipPath id="clip-path">
      <rect id="Rectangle_3" data-name="Rectangle 3" width="19.588" height="26.219" fill="none"/>
    </clipPath>
  </defs>
  <g id="Group_411" data-name="Group 411" transform="translate(0 6)">
    <path id="Path_8303" data-name="Path 8303" d="M24.959-.609H68.588L67.079,24.348H22.066Z" transform="translate(-22.066 3.58)" fill="#e53233" opacity="0.94"/>
    <g transform="matrix(1, 0, 0, 1, 0, -6)" filter="url(#Path_8304)">
      <path id="Path_8304-2" data-name="Path 8304" d="M3.582-.735h38.31L38.933,30.09H0Z" transform="translate(9.82 6.74)" fill="#fff" opacity="0.94"/>
    </g>
    <g id="Group_429" data-name="Group 429" transform="translate(20.975 2.97)">
      <g id="Group_12" data-name="Group 12" transform="translate(0 0)">
        <g id="Group_11" data-name="Group 11" clip-path="url(#clip-path)">
          <g id="Group_10" data-name="Group 10" transform="translate(0 0)">
            <path id="Path_35" data-name="Path 35" d="M707.3,64.831a17.837,17.837,0,0,0-9.046,2.606l-.291.193-.069.342a26.852,26.852,0,0,0-.079,8.721c.944,6.33,4.083,11.211,9.076,14.111l.422.245.422-.245c4.992-2.9,8.126-7.779,9.063-14.108a28.08,28.08,0,0,0,.3-4.086,25.35,25.35,0,0,0-.387-4.64l-.069-.341-.29-.192a17.833,17.833,0,0,0-9.045-2.606h0" transform="translate(-697.507 -64.831)" fill="#231f20"/>
          </g>
        </g>
      </g>
      <path id="Path_36" data-name="Path 36" d="M708.488,66.554a17.372,17.372,0,0,0-8.814,2.537l-.146.1-.034.171a27.228,27.228,0,0,0-.076,8.576c.925,6.2,3.993,10.976,8.872,13.811l.211.123.211-.123c4.878-2.835,7.941-7.609,8.859-13.807a27.257,27.257,0,0,0-.087-8.581l-.035-.171-.145-.1a17.371,17.371,0,0,0-8.814-2.537h0" transform="translate(-698.697 -66.101)" fill="#fff"/>
      <path id="Path_37" data-name="Path 37" d="M709.828,92.684c11.653-6.771,8.571-21.941,8.571-21.941a17.112,17.112,0,0,0-8.582-2.467h0a17.112,17.112,0,0,0-8.582,2.467s-3.058,15.17,8.6,21.941" transform="translate(-699.986 -67.37)" fill="#ed2029"/>
      <path id="Path_38" data-name="Path 38" d="M720.768,71.375l-1.482,1.482-.9-.9-.9.9-1.741-1.741-.259.259-2.943,2.943,2.645,2.644-2.645,2.644,2.232,2.232h-.007l-.476,2.421-.2,1.041L714,85.7a4.855,4.855,0,1,0,8.762,0l-.1-.485-.191-.971L722,81.838H722l2.232-2.232-2.644-2.644,2.644-2.644-3.2-3.2-.259.259" transform="translate(-708.586 -69.464)" fill="#fff"/>
      <path id="Path_39" data-name="Path 39" d="M720.768,71.375l-1.482,1.482-.9-.9-.259.259-.644.644-1.741-1.741-.259.259-2.943,2.943,2.645,2.644-2.645,2.644,2.232,2.232h-.007l-.476,2.421-.2,1.041L714,85.7a4.855,4.855,0,1,0,8.762,0l-.1-.485-.191-.971L722,81.838H722l2.232-2.232-2.644-2.644,2.644-2.644-3.2-3.2Z" transform="translate(-708.586 -69.464)" fill="#231f20"/>
      <path id="Path_40" data-name="Path 40" d="M722.777,78.156l2.385-2.385-2.684-2.684-2.386,2.386-.259.259-2.645-2.644-2.684,2.684,2.644,2.644-2.644,2.644,2.684,2.684,2.645-2.644,2.644,2.644,2.684-2.684-2.644-2.644Z" transform="translate(-710.039 -70.917)" fill="#fff"/>
      <path id="Path_41" data-name="Path 41" d="M733.572,76.92l-.644.644-.661-.661.017.017.645-.644Z" transform="translate(-723.132 -73.268)" fill="#fff"/>
      <path id="Path_42" data-name="Path 42" d="M727.295,137a4.409,4.409,0,0,1-2.23-.8c1.924-1.148,2.895-2.4,2.883-3.723a2.792,2.792,0,0,0-.033-.4,1.57,1.57,0,0,1,1.729.089A5.67,5.67,0,0,1,727.295,137Z" transform="translate(-717.823 -114.249)" fill="#fff"/>
      <path id="Path_43" data-name="Path 43" d="M721.48,130.351a6.761,6.761,0,0,1-3.42-2.442,4.419,4.419,0,0,1,.526-1.572,6.955,6.955,0,0,0,3.689,2.692A3.425,3.425,0,0,1,721.48,130.351Z" transform="translate(-712.659 -110.174)" fill="#fff"/>
      <path id="Path_44" data-name="Path 44" d="M734.656,127.294a3.517,3.517,0,0,0-.314-.709,3.671,3.671,0,0,1,4.289.118,4.4,4.4,0,0,1,.2.774,2.307,2.307,0,0,0-2.09.008A1.955,1.955,0,0,0,734.656,127.294Z" transform="translate(-724.662 -109.874)" fill="#fff"/>
      <path id="Path_45" data-name="Path 45" d="M735.069,122.216a4.213,4.213,0,0,0-4.153.291,5.986,5.986,0,0,0-.931-1.022l.013.009c.011-.01,1.078-.958,3.97-.531A4.461,4.461,0,0,1,735.069,122.216Z" transform="translate(-721.45 -106.131)" fill="#fff"/>
      <path id="Path_46" data-name="Path 46" d="M730.144,118.141a4.9,4.9,0,0,0-3.476.763,8.012,8.012,0,0,0-.749-.527,4.435,4.435,0,0,1,4.225-.236Z" transform="translate(-718.453 -103.818)" fill="#fff"/>
      <path id="Path_47" data-name="Path 47" d="M721.964,121.129c.4.25,2.569,1.681,2.583,3.446a1.917,1.917,0,0,1-.009.2,6.854,6.854,0,0,1-3.517-2.675A4.463,4.463,0,0,1,721.964,121.129Z" transform="translate(-714.842 -106.335)" fill="#fff"/>
      <path id="Path_48" data-name="Path 48" d="M717.9,134.485c0-.014,0-.027,0-.04a6.757,6.757,0,0,0,3.1,2.245,9.388,9.388,0,0,1-1.573,1.143A4.424,4.424,0,0,1,717.9,134.485Z" transform="translate(-712.544 -116.151)" fill="#fff"/>
      <path id="Path_49" data-name="Path 49" d="M732.228,106.218l.671-.671.67.67a4.8,4.8,0,0,0-.666-.046A4.86,4.86,0,0,0,732.228,106.218Z" transform="translate(-723.104 -94.847)" fill="#fff"/>
      <path id="Path_50" data-name="Path 50" d="M723.454,115.489v-.295a4.633,4.633,0,0,0-2.984,1.621l0,0-.087.443A4.856,4.856,0,0,1,723.454,115.489Z" transform="translate(-714.368 -101.959)" fill="#fff"/>
      <path id="Path_51" data-name="Path 51" d="M737.6,115.2v.3a4.855,4.855,0,0,1,3.044,1.762l-.09-.46h0A4.639,4.639,0,0,0,737.6,115.2Z" transform="translate(-727.065 -101.966)" fill="#fff"/>
      <path id="Path_52" data-name="Path 52" d="M724.91,109.864a.721.721,0,0,1,.719.664h.013v.014a5.41,5.41,0,0,1,2.781,1.184l-.131-.665a4.457,4.457,0,0,0-.339-.352l-.407.407-1.441-1.441a4.485,4.485,0,0,0-2.416.009l-1.431,1.431-.4-.4a4.478,4.478,0,0,0-.358.377l-.124.633a5.4,5.4,0,0,1,2.812-1.192v-.011h0A.721.721,0,0,1,724.91,109.864Z" transform="translate(-715.106 -97.772)" fill="#fff"/>
      <path id="Path_53" data-name="Path 53" d="M736.189,137.5a5.846,5.846,0,0,0,2.08-4.756,2.1,2.1,0,0,1,1.98.1c0,.077.006.155.006.233a4.435,4.435,0,0,1-4.066,4.419" transform="translate(-726.024 -114.751)" fill="#fff"/>
      <path id="Path_54" data-name="Path 54" d="M732.9,90.7a.98.98,0,1,1-.98-.98.979.979,0,0,1,.98.98" transform="translate(-722.152 -83.178)" fill="#231f20"/>
      <path id="Path_55" data-name="Path 55" d="M717.637,99.048l2.008,2.008.558-.558-.741-.741.715-.715-.453-.453-.7.7-.348-.348.88-.879-.466-.466-1.457,1.457" transform="translate(-712.347 -88.982)" fill="#231f20"/>
      <path id="Path_56" data-name="Path 56" d="M738.443,77.678l1.408,1.407c.787.788,2.395-.859,1.732-1.522l-1.509-1.509-.551.551,1.319,1.319c.262.262-.3.768-.531.532l-1.322-1.322-.545.545" transform="translate(-727.685 -73.104)" fill="#231f20"/>
      <path id="Path_57" data-name="Path 57" d="M719.494,77.8a.322.322,0,0,1,.184-.114.9.9,0,0,1,1.037.949c.608,0,1.148.7,1.148.7l-.488.47c-.534-.534-.678-.7-.85-.523l-.459.459.689.689-.512.512-1.955-1.955S719.346,77.947,719.494,77.8Zm-.243,1.1.371.371.41-.41c.181-.182-.217-.538-.387-.367s-.394.407-.394.407" transform="translate(-712.826 -74.301)" fill="#231f20"/>
      <path id="Path_58" data-name="Path 58" d="M742.364,100.421a1.363,1.363,0,0,0-.121-1.713,1.45,1.45,0,1,0-.27,2.1l-.512-.51a.631.631,0,0,1-.758-.055.755.755,0,0,1,1.038-1.038.556.556,0,0,1,.111.7l.511.512" transform="translate(-728.715 -89.538)" fill="#231f20"/>
    </g>
  </g>
</svg>
