<svg xmlns="http://www.w3.org/2000/svg" xmlns:xlink="http://www.w3.org/1999/xlink" width="60.715" height="48.826" viewBox="0 0 60.715 48.826">
  <defs>
    <filter id="Path_8304" x="0.823" y="0" width="59.892" height="48.826" filterUnits="userSpaceOnUse">
      <feOffset dy="3" input="SourceAlpha"/>
      <feGaussianBlur stdDeviation="3" result="blur"/>
      <feFlood flood-opacity="0.161"/>
      <feComposite operator="in" in2="blur"/>
      <feComposite in="SourceGraphic"/>
    </filter>
  </defs>
  <g id="Group_411" data-name="Group 411" transform="translate(0 6)">
    <path id="Path_8303" data-name="Path 8303" d="M24.959-.609H68.588L67.079,24.348H22.066Z" transform="translate(-22.066 3.58)" fill="#e53233" opacity="0.94"/>
    <g transform="matrix(1, 0, 0, 1, 0, -6)" filter="url(#Path_8304)">
      <path id="Path_8304-2" data-name="Path 8304" d="M3.582-.735h38.31L38.933,30.09H0Z" transform="translate(9.82 6.74)" fill="#fff" opacity="0.94"/>
    </g>
    <g id="Group_96" data-name="Group 96" transform="translate(24.556 1.52)">
      <path id="Path_6" data-name="Path 6" d="M255.2,94.764a2.183,2.183,0,0,1-1.232-.565,1.33,1.33,0,0,1-.376-.638,3.925,3.925,0,0,1-.053-.943c-.011-.778-.012-.793-.056-.864a.273.273,0,0,0-.207-.125l-.054-.012v2.1h-.871V89.223h.52c.285,0,.608.009.717.019.46.042.7.195.793.5a3.518,3.518,0,0,1,.032.855,1.235,1.235,0,0,1-.063.279.628.628,0,0,1-.5.355c-.168.02-.148.049.05.075a.542.542,0,0,1,.425.268c.072.14.08.227.086.894.005.65.006.661.057.812a1,1,0,0,0,.3.459,1.214,1.214,0,0,0,.894.3l.253,0v.717l-.122.013A3.121,3.121,0,0,1,255.2,94.764Zm-1.774-3.758c.1-.04.114-.1.107-.627l-.006-.485-.055-.048a.2.2,0,0,0-.154-.047h-.1v1.227h.078A.446.446,0,0,0,253.429,91.006Zm-2.547,2.789a.8.8,0,0,1-.759-.74,15.756,15.756,0,0,1-.022-1.667,9.808,9.808,0,0,1,.042-1.618c.135-.451.415-.63.982-.63.6,0,.874.181,1,.659a10.388,10.388,0,0,1,.035,1.673,10.385,10.385,0,0,1-.035,1.673.769.769,0,0,1-.6.623,2.246,2.246,0,0,1-.647.029Zm.36-.69c.027-.027.041-.079.051-.183.007-.08.01-.8.007-1.607l-.006-1.462-.055-.048a.135.135,0,0,0-.2,0l-.049.048v1.6c0,1.578,0,1.605.04,1.644a.17.17,0,0,0,.216,0Zm4.142.691a.805.805,0,0,1-.75-.665,10.578,10.578,0,0,1-.035-1.66,9.5,9.5,0,0,1,.037-1.663c.129-.482.408-.668,1-.669s.9.207,1,.7a5.5,5.5,0,0,1,.032.916v.763h-1.189l.006.774.006.774.047.038a.16.16,0,0,0,.2,0c.047-.038.047-.038.053-.564l.006-.526h.869v.466a3.358,3.358,0,0,1-.032.618.759.759,0,0,1-.609.667,2.3,2.3,0,0,1-.643.03Zm.408-3.433c-.007-.593-.007-.594-.154-.594s-.148,0-.154.594l-.006.524h.32Zm1.864,3.435a.826.826,0,0,1-.781-.644,2.972,2.972,0,0,1-.031-.628v-.511h.871v.47c0,.487.014.6.079.638a.159.159,0,0,0,.19-.029c.048-.048.048-.053.048-.409,0-.322,0-.37-.04-.444-.022-.046-.258-.33-.524-.631a4.469,4.469,0,0,1-.549-.68l-.065-.132-.007-.449a2.274,2.274,0,0,1,.026-.574c.106-.414.459-.636,1.01-.636.592,0,.941.252,1.021.738.01.06.018.289.018.51v.4h-.891v-.932l-.048-.048a.136.136,0,0,0-.178-.026c-.071.032-.09.121-.09.414,0,.4-.019.363.539.978.523.576.573.64.622.79a5.481,5.481,0,0,1,.03,1.109.811.811,0,0,1-.646.694,2.139,2.139,0,0,1-.6.032Zm-9.323-2.327V89.223H250v.614h-.772v1.049h.752v.633h-.752v2.2h-.89Zm11.263.317v-1.93h-.574v-.634h2.039v.634h-.594v3.86H259.6Zm-5.3-3.336a4.849,4.849,0,0,1-1.244-.3c-.119-.046-.453-.2-.741-.351a6.25,6.25,0,0,0-1.614-.628,3.4,3.4,0,0,0-.868-.028,2.68,2.68,0,0,0-1.314.762l-.183.172V86.694l.1-.091a2.826,2.826,0,0,1,1.285-.6,3.374,3.374,0,0,1,1.048.011,4.015,4.015,0,0,1,1.338.547,4.6,4.6,0,0,0,3.227.756,5.428,5.428,0,0,0,1.949-.757,3.978,3.978,0,0,1,1.259-.536,2.059,2.059,0,0,1,.622-.056,2.275,2.275,0,0,1,.924.138,2.463,2.463,0,0,1,.87.489l.106.1v1.389l-.143-.14a2.764,2.764,0,0,0-1.24-.771,1.534,1.534,0,0,0-.465-.047,3.659,3.659,0,0,0-1.844.523,6.123,6.123,0,0,1-1.663.685,4.67,4.67,0,0,1-1.409.118Zm-.076-1.656a4.889,4.889,0,0,1-1.171-.295c-.129-.051-.493-.223-.809-.382a5.8,5.8,0,0,0-1.623-.61,3.6,3.6,0,0,0-.992,0,2.316,2.316,0,0,0-1.18.565l-.114.108V84.9l.064-.057a2.556,2.556,0,0,1,1.218-.54,3.858,3.858,0,0,1,1.11.028,4.471,4.471,0,0,1,1.379.58,4.668,4.668,0,0,0,2.582.8,3.825,3.825,0,0,0,1.078-.136,5.549,5.549,0,0,0,1.457-.628,4.232,4.232,0,0,1,1.582-.641,3.547,3.547,0,0,1,.98,0,2.538,2.538,0,0,1,1.2.54l.076.069v1.264l-.142-.123a2.669,2.669,0,0,0-2.375-.512,4.94,4.94,0,0,0-1.506.63,5.38,5.38,0,0,1-1.842.6,6.681,6.681,0,0,1-.974.017Zm-.119-1.652a7.484,7.484,0,0,1-1.8-.723,5.227,5.227,0,0,0-1.759-.629,2.135,2.135,0,0,0-.646-.01,2.884,2.884,0,0,0-1.5.559l-.064.061v-1.27l.08-.073a1.965,1.965,0,0,1,.736-.385,3.538,3.538,0,0,1,2.272.115,9.293,9.293,0,0,1,1.381.595l.46.234V80.867l-.064.039a2.727,2.727,0,0,1-.555.249,2.048,2.048,0,0,1-2.264-.835c-.063-.095-.115-.174-.116-.176s-.067.018-.148.045a2.108,2.108,0,0,1-1.385-.031,2.067,2.067,0,0,1-1.31-1.535,2.67,2.67,0,0,1,0-.713,2.146,2.146,0,0,1,.359-.822,2.625,2.625,0,0,1,.47-.464l.077-.05-.026-.123a1.366,1.366,0,0,1,.708-1.442c.092-.053.116-.075.109-.106s-.027-.11-.05-.2a1.528,1.528,0,0,1-.02-.609,1.344,1.344,0,0,1,.3-.558,1.386,1.386,0,0,1,.776-.42l.166-.033-.049-.161a1.348,1.348,0,0,1-.051-.5,1.365,1.365,0,0,1,.122-.7,1.845,1.845,0,0,1,.906-.961,1.543,1.543,0,0,1,.827-.176l.331,0,.072-.109a3.48,3.48,0,0,1,.64-.627,2.643,2.643,0,0,1,.879-.384,3.113,3.113,0,0,1,.972-.028,2.651,2.651,0,0,1,1.1.462,3.026,3.026,0,0,1,.6.614c.066.1.087.122.122.113a1.937,1.937,0,0,1,1.782.532,1.552,1.552,0,0,1,.436,1.123,2.453,2.453,0,0,1-.064.7c-.009.034.011.047.139.1a2.052,2.052,0,0,1,1.065,1.065,1.1,1.1,0,0,1,.088.536l-.009.195.14.073a1.3,1.3,0,0,1,.617.777,2.334,2.334,0,0,1,.021.752c-.034.193-.057.153.2.36a1.886,1.886,0,0,1,.611.936,2.3,2.3,0,0,1-.011.871,2.059,2.059,0,0,1-1.081,1.328,1.8,1.8,0,0,1-.92.213,2.087,2.087,0,0,1-.472-.034,1.091,1.091,0,0,0-.17-.029,2.234,2.234,0,0,1-.853.744,2.4,2.4,0,0,1-1.128.27,1.616,1.616,0,0,1-.786-.167l-.208-.091a9.978,9.978,0,0,0-.025,1.367c0,.758,0,1.378.007,1.378s.091-.045.193-.1a7.5,7.5,0,0,1,2.73-.969,2.7,2.7,0,0,1,1.88.452l.1.087v1.269l-.076-.069a3.037,3.037,0,0,0-2.082-.5,5.215,5.215,0,0,0-1.776.632,7.885,7.885,0,0,1-1.44.623,4.38,4.38,0,0,1-.569.141,22.973,22.973,0,0,1-.035-3.021v-3.02l.112.1a2.371,2.371,0,0,0,1.34.517,1.944,1.944,0,0,0,2.092-1.066l.033-.106.072.089a1.058,1.058,0,0,0,.191.168,1,1,0,0,0,1.268-.115.961.961,0,0,0-.263-1.534.975.975,0,0,0-.222-.08l-.087-.013.058-.092a.9.9,0,0,0,.132-.546.618.618,0,0,0-.081-.333.924.924,0,0,0-.69-.5c-.091-.017-.169-.034-.172-.037s.007-.027.024-.052a1.135,1.135,0,0,0,.122-.4,1.118,1.118,0,0,0-.8-1.111,1.645,1.645,0,0,0-.5-.089.345.345,0,0,1-.1-.008,1.054,1.054,0,0,1,.07-.114,1.323,1.323,0,0,0,.2-.809,1.159,1.159,0,0,0-.062-.386,1.33,1.33,0,0,0-1.252-.92,1.533,1.533,0,0,0-.528.1c-.053.023-.1.041-.1.041a.486.486,0,0,1-.03-.1,1.275,1.275,0,0,0-.284-.523,1.41,1.41,0,0,0-1.654-.29,1.253,1.253,0,0,0-.663.789c-.029.11-.021.108-.22.048a1.546,1.546,0,0,0-.673-.011,1.331,1.331,0,0,0-.973,1.532,1.428,1.428,0,0,0,.222.528c.033.044.066.089.073.1s-.05.022-.159.024a1.342,1.342,0,0,0-.945.391.943.943,0,0,0-.319.811.879.879,0,0,0,.154.481.73.73,0,0,1,.058.095.934.934,0,0,1-.187.009,1.85,1.85,0,0,0-.292.022.828.828,0,0,0-.574.429.937.937,0,0,0,.242.96l.1.108-.074.012a1.15,1.15,0,0,0-.481.263.9.9,0,0,0-.319.7.813.813,0,0,0,.308.658,1.1,1.1,0,0,0,1.36-.049l.111-.091.036.082a1.6,1.6,0,0,0,.309.441,2.527,2.527,0,0,0,3.188-.009l.114-.108v6.043h-.044A1.638,1.638,0,0,1,254.1,85.144Z" transform="translate(-247.397 -69.412)" fill="#e53233"/>
    </g>
  </g>
</svg>
