<svg xmlns="http://www.w3.org/2000/svg" xmlns:xlink="http://www.w3.org/1999/xlink" width="59.892" height="48.826" viewBox="0 0 59.892 48.826">
  <defs>
    <filter id="Path_8301" x="0" y="0" width="59.892" height="48.826" filterUnits="userSpaceOnUse">
      <feOffset dy="3" input="SourceAlpha"/>
      <feGaussianBlur stdDeviation="3" result="blur"/>
      <feFlood flood-opacity="0.161"/>
      <feComposite operator="in" in2="blur"/>
      <feComposite in="SourceGraphic"/>
    </filter>
    <clipPath id="clip-path">
      <rect id="Rectangle_4" data-name="Rectangle 4" width="20.621" height="21.523" fill="none"/>
    </clipPath>
  </defs>
  <g id="Group_413" data-name="Group 413" transform="translate(0.029 6)">
    <path id="Path_8300" data-name="Path 8300" d="M24.767-.609H65.5L64.093,24.348H22.066Z" transform="translate(-22.066 3.58)" fill="#2b55a2" opacity="0.94"/>
    <g transform="matrix(1, 0, 0, 1, -0.03, -6)" filter="url(#Path_8301)">
      <path id="Path_8301-2" data-name="Path 8301" d="M3.582-.735h38.31L38.933,30.09H0Z" transform="translate(9 6.74)" fill="#fff" opacity="0.94"/>
    </g>
    <g id="Group_431" data-name="Group 431" transform="translate(19.718 4.651)">
      <g id="Group_15" data-name="Group 15">
        <g id="Group_14" data-name="Group 14" clip-path="url(#clip-path)">
          <path id="Path_59" data-name="Path 59" d="M495.3,230.04a8.883,8.883,0,0,1-10.306-.02v6.152a18.873,18.873,0,0,0,2.672,8.261c1.709,2.791,4.8,5.928,7.634,7.109,2.83-1.181,5.924-4.318,7.634-7.109a19.289,19.289,0,0,0,2.671-8.261V230.02a8.883,8.883,0,0,1-10.305.02Zm0,0" transform="translate(-484.989 -230.021)" fill="#2b55a2" fillRule="evenodd"/>
        </g>
      </g>
      <path id="Path_60" data-name="Path 60" d="M500.771,252.427q.421-.347.822-.717a4.375,4.375,0,0,1-.613.039c-1.441,0-1.652-.949-2.847-.949s-1.406.949-2.847.949a4.6,4.6,0,0,1-.529-.029q.392.362.8.7c1.2-.112,1.457-.936,2.571-.937,1.134,0,1.382.855,2.637.941Zm1.1-16.593a10.986,10.986,0,0,1-3.7-1.384,10.991,10.991,0,0,1-3.7,1.384,8.89,8.89,0,0,1-5.8-.909v4.71a19,19,0,0,0,2.554,7.843q.292.474.615.928a3.192,3.192,0,0,1,1.274.092c.6.211.739.738,2.18.738s1.652-.949,2.846-.949,1.406.949,2.847.949,1.582-.527,2.179-.738a3.29,3.29,0,0,1,1.34-.084q.326-.457.62-.936a18.109,18.109,0,0,0,2.554-7.842v-4.71a8.886,8.886,0,0,1-5.8.909Zm0,0" transform="translate(-487.859 -233.484)" fill="#fff" fillRule="evenodd"/>
      <path id="Path_61" data-name="Path 61" d="M514.754,302.993c-1.441,0-1.652-.949-2.847-.949s-1.406.949-2.847.949-1.582-.527-2.18-.738a2.256,2.256,0,0,0-.6-.11q.341.428.7.838a3.18,3.18,0,0,0,2.074.7c1.441,0,1.652-.949,2.847-.949s1.406.949,2.847.949,1.582-.527,2.179-.738l.005,0q.343-.391.667-.8a2.336,2.336,0,0,0-.672.113c-.6.211-.738.738-2.179.738Zm-2.847,2.25c-.783,0-1.144.408-1.7.689a11.193,11.193,0,0,0,1.741,1.036,11.18,11.18,0,0,0,1.711-1.015c-.586-.281-.945-.709-1.747-.709Zm0,0" transform="translate(-501.632 -286.327)" fill="#fff" fillRule="evenodd"/>
      <path id="Path_62" data-name="Path 62" d="M515.621,243.393a.656.656,0,1,0-.656.669.636.636,0,0,0,.656-.669Zm-.656.551c-.24,0-.384-.207-.384-.553,0-.407.2-.552.384-.552s.385.145.385.552c0,.346-.144.553-.385.553Zm0,0" transform="translate(-507.908 -239.949)" fill="#2b55a2" fillRule="evenodd"/>
      <path id="Path_63" data-name="Path 63" d="M516.955,243.116l.2.283-.29.346c-.154.184-.168.2-.261.2l-.024,0v.085h.5v-.086h-.024c-.083,0-.122-.012-.122-.044s.071-.113.094-.141l.208-.251.164.234a.592.592,0,0,1,.094.163c0,.027-.014.032-.11.037h-.014l-.024,0v.086h.624v-.085l-.024,0c-.091-.009-.124-.03-.2-.128l-.358-.5.269-.325c.13-.156.173-.16.269-.167l.024,0v-.085h-.51v.086h.025c.076,0,.11.008.11.036s-.028.058-.063.1l-.009.011-.2.233-.062-.084c-.116-.159-.159-.23-.159-.262s.01-.032.121-.034h.025v-.086H516.6v.085l.023,0c.1.009.14.012.33.283Zm1.583.92h.026v-.086h-.025c-.124-.005-.151-.018-.151-.143v-.384l.253,0c.137,0,.168.015.187.155l0,.022h.093v-.486h-.093l0,.022c-.017.124-.038.156-.187.156h-.253v-.39c0-.038,0-.038.036-.038h.262c.2,0,.241.025.268.175l0,.021h.07l.026-.026-.005-.268v-.025h-1.074v.085l.024,0c.116.009.144.016.144.143v.81c0,.141-.013.157-.143.163h-.024v.086h.565Zm1.2.026a.671.671,0,1,0-.656-.669.634.634,0,0,0,.656.669Zm0-.119c-.241,0-.385-.207-.385-.553,0-.407.2-.552.385-.552s.385.145.385.552c0,.346-.144.553-.385.553Zm2.531-1.2h-.546v.085l.024,0c.136.01.146.02.146.143v.831c0,.115-.011.136-.145.143h-.044a.191.191,0,0,1-.149-.079l-.369-.44a.35.35,0,0,0,.327-.331c0-.225-.188-.353-.515-.353h-.558v.085l.023,0c.125.012.14.021.14.143v.81c0,.132,0,.155-.14.163l-.024,0v.085h.585v-.086h-.025c-.143-.007-.149-.033-.149-.143v-.344l.07,0,.45.566.008.01h.916c.73,0,.767-.534.767-.641,0-.412-.29-.649-.794-.649Zm-1.018.35c0,.214-.2.243-.4.247v-.434c0-.033,0-.041.094-.041.2,0,.305.077.305.229Zm1.551.3c0,.344-.192.519-.571.519-.09,0-.09-.011-.09-.051v-.951c0-.034,0-.047.065-.047a.57.57,0,0,1,.426.125.513.513,0,0,1,.17.405Zm-6.307.8h-.025v.086h.024c.119.007.157.025.157.214V245a.446.446,0,0,1-.041.241.335.335,0,0,1-.294.136c-.309,0-.309-.231-.309-.354v-.6c0-.115.009-.132.152-.143l.024,0V244.2h-.6v.085h.024c.137.009.15.021.15.143v.584a.446.446,0,0,0,.5.5.461.461,0,0,0,.525-.527V244.5c0-.191.03-.2.158-.214l.023,0V244.2Zm1.389,0h-.026v.085l.024,0c.117.008.161.011.161.214v.558l-.7-.849-.008-.01h-.367v.087H517c.065,0,.091,0,.161.087v.815c0,.195-.037.206-.163.214l-.024,0v.086h.5V245.4h-.025c-.123,0-.156-.032-.156-.214v-.663l.806.975.008.009h.071V244.5c0-.2.043-.2.16-.214l.023,0V244.2h-.478Zm.516,0h-.026v.086h.024c.153.007.162.024.162.143v.831c0,.118-.012.139-.162.143h-.025v.087H519V245.4h-.025c-.135,0-.164-.016-.164-.142v-.831c0-.131.031-.137.164-.143H519V244.2Zm1.762,0h-1.136v.025l-.011.318.026.027h.067l0-.02c.039-.189.079-.219.281-.219h.078v.91c0,.13,0,.156-.157.163h-.024v.086h.614V245.4h-.025c-.154-.005-.16-.034-.16-.143v-.93h.078c.2,0,.244.031.281.219l0,.021h.068l.026-.027-.012-.318Zm1.118.923h-.017l-.007.015c-.081.18-.167.23-.4.23-.261,0-.261,0-.261-.053v-.438l.27,0c.146,0,.166.018.187.156l0,.022h.092v-.485h-.092l0,.022c-.02.124-.031.156-.186.156H520.6v-.39c0-.038,0-.038.038-.038h.26c.2,0,.241.025.267.175l0,.021h.07l.026-.026-.006-.268V244.2h-1.074v.085l.024,0c.116.009.144.016.144.142v.831c0,.128-.032.136-.143.143l-.025,0v.086h1.086l0-.019.087-.316-.025-.032h-.053Zm.632-.923h-.546v.085l.024,0c.136.01.146.019.146.143v.831c0,.115-.011.136-.145.143h-.024v.086h.573c.73,0,.767-.534.767-.641,0-.412-.29-.649-.794-.649Zm.533.651c0,.344-.192.519-.572.519-.09,0-.09-.011-.09-.051v-.951c0-.034,0-.047.065-.047a.57.57,0,0,1,.426.125.511.511,0,0,1,.17.405Zm-1.8,4.738a4.8,4.8,0,0,1-.732.1.641.641,0,0,0,.377.121.416.416,0,0,0,.355-.226Zm-2.539.226a.641.641,0,0,0,.372-.118,5.087,5.087,0,0,1-.72-.1.41.41,0,0,0,.348.214Zm0,0" transform="translate(-508.908 -239.949)" fill="#2b55a2" fillRule="evenodd"/>
      <path id="Path_64" data-name="Path 64" d="M510.4,253.165a2.84,2.84,0,0,0,.943-.926,3.824,3.824,0,0,0,.169-1.581,4.4,4.4,0,0,1-1.712-1.15,2.649,2.649,0,0,1-.365-2.93s-1.144.578-1.144,3.383a3.434,3.434,0,0,0,2.1,3.194Zm1.148-.948c.082.084.452.34,1.922.341s1.84-.257,1.922-.341a4.367,4.367,0,0,1-.142-1.526,6.693,6.693,0,0,0-3.559,0,4.362,4.362,0,0,1-.142,1.524Zm5.962-5.638a2.649,2.649,0,0,1-.365,2.93,4.393,4.393,0,0,1-1.717,1.151,3.82,3.82,0,0,0,.169,1.579,2.839,2.839,0,0,0,.946.928l.011-.011a3.433,3.433,0,0,0,2.1-3.194c0-2.8-1.144-3.383-1.144-3.383Zm-3.2,10.261a.411.411,0,0,0,.458-.409.442.442,0,0,0-.445-.445,1.362,1.362,0,0,0-.69.36c.141.18.438.495.677.495Zm0,0" transform="translate(-503.198 -242.965)" fill="#2b55a2" fillRule="evenodd"/>
      <path id="Path_65" data-name="Path 65" d="M529.563,273.167a1.09,1.09,0,0,1-.354.173.6.6,0,0,1-.536.418.792.792,0,0,1-.577-.25q-.225.011-.451.013v3.441a1.422,1.422,0,0,1,.761-.366.616.616,0,0,1,.622.622.584.584,0,0,1-.634.586,1.2,1.2,0,0,1-.748-.48v.782h1.185a.589.589,0,0,0,.541-.44v-.955a.8.8,0,0,1,.289-.591,3.7,3.7,0,0,0,.83-2.024l.011-.011a3.03,3.03,0,0,1-.938-.915Zm-3.252,4.05a.411.411,0,0,0,.457.409c.24,0,.536-.315.678-.495a1.362,1.362,0,0,0-.69-.36.442.442,0,0,0-.445.445Zm0,0" transform="translate(-517.29 -263.752)" fill="#2b55a2" fillRule="evenodd"/>
      <path id="Path_66" data-name="Path 66" d="M521.395,277.377a1.118,1.118,0,0,1-.7.426.584.584,0,0,1-.634-.586.616.616,0,0,1,.622-.622,1.341,1.341,0,0,1,.712.327v-3.4c-.135,0-.27,0-.405-.01a.791.791,0,0,1-.574.248.6.6,0,0,1-.53-.4,1.17,1.17,0,0,1-.409-.19,3.037,3.037,0,0,1-.935.913l.013.013a3.7,3.7,0,0,0,.83,2.025.8.8,0,0,1,.289.591v.956a.589.589,0,0,0,.541.44h1.18v-.727Zm0,0" transform="translate(-511.215 -263.752)" fill="#2b55a2" fillRule="evenodd"/>
    </g>
  </g>
</svg>
