<svg xmlns="http://www.w3.org/2000/svg" xmlns:xlink="http://www.w3.org/1999/xlink" width="59.892" height="48.826" viewBox="0 0 59.892 48.826">
  <defs>
    <filter id="Path_8301" x="0" y="0" width="59.892" height="48.826" filterUnits="userSpaceOnUse">
      <feOffset dy="3" input="SourceAlpha"/>
      <feGaussianBlur stdDeviation="3" result="blur"/>
      <feFlood flood-opacity="0.161"/>
      <feComposite operator="in" in2="blur"/>
      <feComposite in="SourceGraphic"/>
    </filter>
  </defs>
  <g id="Group_413" data-name="Group 413" transform="translate(0.029 6)">
    <path id="Path_8300" data-name="Path 8300" d="M24.767-.609H65.5L64.093,24.348H22.066Z" transform="translate(-22.066 3.58)" fill="#e31837" opacity="0.94"/>
    <g transform="matrix(1, 0, 0, 1, -0.03, -6)" filter="url(#Path_8301)">
      <path id="Path_8301-2" data-name="Path 8301" d="M3.582-.735h38.31L38.933,30.09H0Z" transform="translate(9 6.74)" fill="#fff" opacity="0.94"/>
    </g>
    <g id="Group_94" data-name="Group 94" transform="translate(15.737 4.9)">
      <path id="Path_1" data-name="Path 1" d="M123.967,91.276c-.262-.235-.475-.365-.543-.423a1.963,1.963,0,0,0-.434-.3c-.266-.167-.34-.3-.611-.454a2.53,2.53,0,0,1-.93-.825,1.762,1.762,0,0,0-1.4-.831,1.737,1.737,0,0,1-.967-.663,2.328,2.328,0,0,0-.951-.789c-.726-.4-1.562-.329-2.216-.914a2.941,2.941,0,0,0-2.284-.6,3.2,3.2,0,0,1-1.562-.585,1.939,1.939,0,0,0-.653-.349c-.731-.225-1.23.162-2.255-.334-.3-.146-.569-.345-.862-.517a1.053,1.053,0,0,0-.488-.189,5.353,5.353,0,0,0-1.66.016c-.39.025-.488-.137-.781-.288a3.923,3.923,0,0,0-.879-.307,4.094,4.094,0,0,0-1.5.078c-1.025.2-1.953-.313-2.948-.22a.972.972,0,0,0-.605.46,1.379,1.379,0,0,0-.125.809,2.179,2.179,0,0,0,.162.726c.178.6.272.92.413,1.318.167.465.162,1.035-.235,1.22a.74.74,0,0,1-.684-.047c-.277-.214-.429-.507-.742-.569-.418-.084-.92.345-1.367.465s-.5-.125-.809-.267a.559.559,0,0,0-.517.11c-.209.115-.256.355-.309.611a1.435,1.435,0,0,0-.005.616,4.756,4.756,0,0,1,.188.742,1.915,1.915,0,0,1-.3,1.279,3.969,3.969,0,0,0-.4.909,5.05,5.05,0,0,0-.282,1.142c-.052.309-.042.653-.068.94-.005.052.036.705.068.9a11.716,11.716,0,0,0,.271,1.2,4.751,4.751,0,0,1,.193,1.406c-.016.465-.309.9-.031,1.23a.937.937,0,0,0,1,.224,4.207,4.207,0,0,1,.94-.4,4.959,4.959,0,0,1,1.123.131c.209-.026.569-.23.742-.245a1.08,1.08,0,0,1,.538.052c.167.125.266.262.24.684,0,.005-.1.454-.1.46-.173.558-.355,1.083-.444,1.464-.094.4-.533,1.279.36,1.63a1.985,1.985,0,0,0,1.269-.005c.251-.063.355-.073.591-.115,0-.016.35-.011.35-.027l.313-.016a3.467,3.467,0,0,1,1.172.042,5.668,5.668,0,0,0,1.357.094,3.354,3.354,0,0,0,.673-.141,7.969,7.969,0,0,1,1.7-.585,7.694,7.694,0,0,1,1.2-.005,2.254,2.254,0,0,0,1.152-.413c.3-.162.376-.177.574-.282a9.806,9.806,0,0,1,2.382-.538c.569-.141.793-.407,1.435-.58a6.761,6.761,0,0,1,.8-.1,1.824,1.824,0,0,0,.778-.4c.35-.324.313-.34.585-.491.454-.256.971-.251,1.435-.465a3.837,3.837,0,0,0,1.2-.705,4.886,4.886,0,0,1,1.9-.867,2.317,2.317,0,0,0,1.289-1.094,1.973,1.973,0,0,1,1.484-1.015,2.2,2.2,0,0,0,1.064-.6,3.732,3.732,0,0,0,.606-.736c.173-.251.507-.669.151-.986a6.566,6.566,0,0,0-.653-.658" transform="translate(-94.353 -82.767)"/>
      <path id="Path_2" data-name="Path 2" d="M166.145,128.135" transform="translate(-144.486 -114.448)" fill="#100f0d"/>
      <path id="Path_3" data-name="Path 3" d="M125.273,93.962c-.418-.3-.454-.349-.673-.5a3.59,3.59,0,0,1-.951-.778,1.971,1.971,0,0,0-.653-.58c-.115-.068-.893-.334-.752-.308a1.375,1.375,0,0,1-1.016-.538,3.814,3.814,0,0,0-.752-.9c.094.057-.433-.287-.428-.277a2.857,2.857,0,0,0-1.054-.125,4.883,4.883,0,0,1-.7-.147,2.531,2.531,0,0,1-.58-.386c-.4-.3-.287-.23-.679-.517-.533-.386-.6-.293-1.279-.36a2.7,2.7,0,0,1-1.435-.517,3.5,3.5,0,0,0-2.07-.449,3.7,3.7,0,0,1-1.464-.558,5.086,5.086,0,0,0-1.045-.475c-.726-.345-1.406.23-2.255-.011a6.115,6.115,0,0,1-.9-.465,4.614,4.614,0,0,0-1.865-.107c-.84,0-1.591-.224-2.392-.215a.373.373,0,0,0-.365.444s.011.308.011.313a8.168,8.168,0,0,0,.214.809c.1.345.151.46.293,1.006a1.881,1.881,0,0,1-.031.747,2.023,2.023,0,0,1-.2.558.926.926,0,0,1-.34.262,1.428,1.428,0,0,1-.783.214c-.282-.011-.209-.011-.653-.173a1.068,1.068,0,0,0-.831-.11c-.642.272-.715.047-1.064.073a.864.864,0,0,0-.308.1c-.162.068-.235.173-.34.386a1.031,1.031,0,0,0-.084.538c-.036,0,.062.3.062.313a1.757,1.757,0,0,1-.057,1.1,3.584,3.584,0,0,1-.386.747,3.955,3.955,0,0,0-.543,1.777c.026-.026-.005.856.1,1.377a5.535,5.535,0,0,1,.318,1.572c.015.36-.021.674-.031,1-.005.209.062.5.324.46.376-.057.8-.267,1.093-.277a2.008,2.008,0,0,1,.5.073c.6.209.4.052,1.327-.11a1.621,1.621,0,0,1,.9.11c.549.318.5,1.015.345,1.708-.026.11-.162.836-.193.945a4.116,4.116,0,0,0-.131.778.724.724,0,0,0,.094.507c.089.141.188.24.324.24a6.64,6.64,0,0,0,1.562-.11,5.59,5.59,0,0,1,1.767-.094,5.126,5.126,0,0,0,1.708-.089,9.117,9.117,0,0,1,1.025-.413,14.026,14.026,0,0,1,1.953-.23,3.452,3.452,0,0,0,1.386-.616,2.862,2.862,0,0,1,1.454-.344,2.949,2.949,0,0,0,1.016-.214,4.429,4.429,0,0,1,1.836-.622,4.842,4.842,0,0,0,1.5-.851,3.609,3.609,0,0,1,.767-.349c.387-.115.82-.178,1.191-.3a2.665,2.665,0,0,0,1.1-.7,3.213,3.213,0,0,1,.663-.429,4.306,4.306,0,0,1,.929-.387,5.979,5.979,0,0,0,1.5-1.318c.631-.647,1.22-.538,1.923-.914.428-.224.7-.376.507-.783a1.563,1.563,0,0,0-.465-.48" transform="translate(-96.146 -84.848)" fill="#fff"/>
      <path id="Path_4" data-name="Path 4" d="M124.683,104.864c-1.328-1.035-.951-1.962-.392-2.392l.167.182-.282.3.021,1.074h3.827l.491-.47v-1.171h-.293l-1.327-1.426a3.826,3.826,0,0,1,4.55,1.8h1l.507-.491V99.433h-1.064l-.637.392a7.079,7.079,0,0,0-5.76-.4l-.287-.293,1.62-.966.976-.005.48-.454v-.961H124.37l-.413.422v.658l-3.661,2.1V98.314l.59-.6v-.971H117.05l-.523.611v.767h.627v4.149h-.193a7.373,7.373,0,0,0-.486.591v1.074h4.042l.4-.376v-1.289h-.6v-.329l2.226-1.279.189.193a3.615,3.615,0,0,0-1.181,1.2,3.281,3.281,0,0,0-.34,2.548,2.808,2.808,0,0,0,.742,1.25,3.688,3.688,0,0,0,1.22.841,8.658,8.658,0,0,0,2.431.658,14.208,14.208,0,0,0,2.558-.037,7.7,7.7,0,0,0,2-.543,6.131,6.131,0,0,0,1.113-.6,3.447,3.447,0,0,0,1.669-2.548h-1.5c-.47,1.679-5.018,2.441-6.844,1.142" transform="translate(-109.8 -92.528)" stroke="#000" strokeWidth="0.648"/>
      <path id="Path_5" data-name="Path 5" d="M130.028,97.616l-3.614.005v.627h.423l-4.779,2.727V98.253l.6-.005v-.627h-3.5v.627h.6v5.009h-.6v.721h3.5v-.721h-.57v-.846l2.716-1.556,2.251,2.4-.5-.005v.731h3.635v-.726h-.115l-3.3-3.557,2.449-1.442.8-.01v-.627Zm.02,2.255a7.094,7.094,0,0,0-2.333.388l.935,1.024c2.011-.481,4.168.021,5.113,1.447l.909-.01.01-2.512h-.836l-.6.392a8.019,8.019,0,0,0-3.2-.728Zm3.715,2.858h0Zm-8.816-1a3.034,3.034,0,0,0-1.3,1.619,2.855,2.855,0,0,0,.062,2.116,3.624,3.624,0,0,0,1.818,1.53,9.5,9.5,0,0,0,3.881.637,7.075,7.075,0,0,0,3.1-.716,4.308,4.308,0,0,0,1.233-.883,2.867,2.867,0,0,0,.9-1.52h-.961a3.294,3.294,0,0,1-2.141,1.5l.011.005c-2.361.7-4.633.35-5.641-.893A1.479,1.479,0,0,1,126,102.86l-1.051-1.133Z" transform="translate(-111.668 -93.136)" fill="#e31837" stroke="#e31837" strokeWidth="0.346"/>
    </g>
  </g>
</svg>
