<svg xmlns="http://www.w3.org/2000/svg" xmlns:xlink="http://www.w3.org/1999/xlink" width="59.892" height="48.826" viewBox="0 0 59.892 48.826">
  <defs>
    <filter id="Path_8301" x="0" y="0" width="59.892" height="48.826" filterUnits="userSpaceOnUse">
      <feOffset dy="3" input="SourceAlpha"/>
      <feGaussianBlur stdDeviation="3" result="blur"/>
      <feFlood flood-opacity="0.161"/>
      <feComposite operator="in" in2="blur"/>
      <feComposite in="SourceGraphic"/>
    </filter>
    <clipPath id="clip-path">
      <rect id="Rectangle_1" data-name="Rectangle 1" width="21.424" height="25.588" fill="none"/>
    </clipPath>
  </defs>
  <g id="Group_413" data-name="Group 413" transform="translate(0.029 6)">
    <path id="Path_8300" data-name="Path 8300" d="M24.767-.609H65.5L64.093,24.348H22.066Z" transform="translate(-22.066 3.58)" fill="#035fab" opacity="0.94"/>
    <g transform="matrix(1, 0, 0, 1, -0.03, -6)" filter="url(#Path_8301)">
      <path id="Path_8301-2" data-name="Path 8301" d="M3.582-.735h38.31L38.933,30.09H0Z" transform="translate(9 6.74)" fill="#fff" opacity="0.94"/>
    </g>
    <g id="Group_428" data-name="Group 428" transform="translate(19.207 2.34)">
      <path id="Path_7" data-name="Path 7" d="M73.373,247.725l8.672-3.311,8.935,3.573,1.1,8.462-2.523,7.2-7.2,4.2L74.477,263.6l-2.365-6.254,1.261-9.618" transform="translate(-71.477 -243.412)" fill="#fff"/>
      <path id="Path_8" data-name="Path 8" d="M94.677,255.529a8.252,8.252,0,0,1,2.891,2.638h0a50.841,50.841,0,0,1,4,6.76l.235.475h-1.253l-.087-.065-3.08-2.267,1.546.32,1.794,1.321a45.927,45.927,0,0,0-3.676-6.141h0a12.793,12.793,0,0,0-1.609-1.775A3.244,3.244,0,0,0,94.677,255.529Zm-2.239,4.762h0a2.867,2.867,0,0,0,1.3-.414,2.129,2.129,0,0,0,.973-1.309H93.573c-.674,0-.828.386-.828.387l-.306.78-.307-.78a.753.753,0,0,0-.756-.387H89.428v-.33h0a3.712,3.712,0,0,1,.8-2.45,2.828,2.828,0,0,1,2.225-.972v0h0v0a2.852,2.852,0,0,1,2.274,1.057,3.211,3.211,0,0,1,.728,1.956h0v0h0a2.862,2.862,0,0,1-1.377,2.607,3.629,3.629,0,0,1-1.642.509h0Zm-1.486-2.821h0a.442.442,0,0,0,.422.44h.046a.442.442,0,0,0,.414-.44h0a.441.441,0,0,0-.44-.44h0a.441.441,0,0,0-.439.44Zm2.131,0h0a.441.441,0,0,0,.423.44h.053a.446.446,0,0,0,.277-.129.44.44,0,0,0,.129-.311h0a.442.442,0,0,0-.441-.44h0a.442.442,0,0,0-.44.44Zm-.426.675a1.083,1.083,0,0,1-.2-.409,1.09,1.09,0,0,1-.206.418,1.371,1.371,0,0,1,.191.149A1.425,1.425,0,0,1,92.657,258.145Zm-.2-.94a1.1,1.1,0,0,1,1.064-.832h0a1.1,1.1,0,0,1,1.1,1.1h0a1.1,1.1,0,0,1-.091.439h.27v-.076h0v0h0a2.527,2.527,0,0,0-.578-1.539,2.213,2.213,0,0,0-1.767-.818v0h0v0a2.189,2.189,0,0,0-1.726.743,2.9,2.9,0,0,0-.63,1.7h.289a1.112,1.112,0,0,1-.092-.44h0a1.1,1.1,0,0,1,1.1-1.1h0a1.1,1.1,0,0,1,1.064.832Zm-.025,8.2h0a1.336,1.336,0,0,1,.467-1.021,1.517,1.517,0,0,1,.978-.37h0a1.523,1.523,0,0,1,.719.165,1.729,1.729,0,0,1,.519.427.415.415,0,0,0,.31.141h1.521l-1.426-1.375c-.283-.005-.586-.023-.9-.059a8.748,8.748,0,0,1-1.118-.2,4.873,4.873,0,0,1-4.046-4.267h.662a4.277,4.277,0,0,0,3.545,3.628,8.018,8.018,0,0,0,1.033.188,8.454,8.454,0,0,0,.939.057h.149l.1.093,2.106,2.033.587.567H95.449a1.133,1.133,0,0,1-.828-.371,1.1,1.1,0,0,0-.321-.27.89.89,0,0,0-.418-.09h0a.846.846,0,0,0-.545.207.689.689,0,0,0-.243.526h-.658" transform="translate(-84.179 -251.041)" fill="#035fab"/>
      <path id="Path_9" data-name="Path 9" d="M94.742,297.435v.1a.325.325,0,0,0-.192.053.5.5,0,0,0-.142.2,3.827,3.827,0,0,0-.141.466l-.843,3.047H93.33l-.694-2.418-.685,2.418h-.084l-.9-3.142c-.067-.233-.11-.371-.128-.414a.345.345,0,0,0-.123-.157.371.371,0,0,0-.209-.052v-.1h1.122v.1h-.054a.241.241,0,0,0-.182.067.229.229,0,0,0-.063.161,2.288,2.288,0,0,0,.1.45l.6,2.123.506-1.806-.091-.316-.072-.255a1.534,1.534,0,0,0-.106-.246.315.315,0,0,0-.072-.089.381.381,0,0,0-.112-.072.377.377,0,0,0-.135-.017v-.1h1.185v.1h-.081a.234.234,0,0,0-.184.067.27.27,0,0,0-.058.182,2.146,2.146,0,0,0,.1.5l.584,2.056.577-2.084a2.148,2.148,0,0,0,.1-.481.247.247,0,0,0-.032-.12.187.187,0,0,0-.083-.078.533.533,0,0,0-.222-.039v-.1Zm1.011.206v1.484H96.4a.38.38,0,0,0,.3-.1.762.762,0,0,0,.124-.418h.088v1.284h-.088a.87.87,0,0,0-.047-.322.346.346,0,0,0-.129-.155.46.46,0,0,0-.242-.052h-.649v1.188a1.567,1.567,0,0,0,.03.382.249.249,0,0,0,.1.12.4.4,0,0,0,.217.067h.115v.1H94.836v-.1h.114a.32.32,0,0,0,.29-.138.991.991,0,0,0,.057-.432v-2.438a1.489,1.489,0,0,0-.031-.381.239.239,0,0,0-.1-.121.394.394,0,0,0-.218-.068h-.114v-.1h2.387l.035.831h-.082a1.224,1.224,0,0,0-.143-.389.48.48,0,0,0-.2-.18.92.92,0,0,0-.371-.056Zm4.284-.261.073,1.284h-.073a1.717,1.717,0,0,0-.4-.831.875.875,0,0,0-.631-.253.889.889,0,0,0-.556.19,1.251,1.251,0,0,0-.392.608,3.258,3.258,0,0,0-.142,1.038,2.622,2.622,0,0,0,.135.889,1.192,1.192,0,0,0,.406.577,1.013,1.013,0,0,0,.619.2.921.921,0,0,0,.533-.158,1.555,1.555,0,0,0,.381-.424l.1.055a1.681,1.681,0,0,1-.443.54,1.2,1.2,0,0,1-.74.234,1.328,1.328,0,0,1-1.2-.7,2.3,2.3,0,0,1-.316-1.22,2.56,2.56,0,0,1,.208-1.039,1.728,1.728,0,0,1,.572-.733,1.339,1.339,0,0,1,.8-.261,1.253,1.253,0,0,1,.662.2.323.323,0,0,0,.137.061.136.136,0,0,0,.107-.053.471.471,0,0,0,.085-.208Zm-9.95-.027v1.312H90a1.939,1.939,0,0,0-.145-.6.855.855,0,0,0-.3-.354.71.71,0,0,0-.4-.131.491.491,0,0,0-.388.176.6.6,0,0,0-.153.4.547.547,0,0,0,.1.314,2.565,2.565,0,0,0,.666.556,4.545,4.545,0,0,1,.584.435,1.047,1.047,0,0,1,.24.358,1.134,1.134,0,0,1,.083.431,1.092,1.092,0,0,1-.268.739.872.872,0,0,1-.691.311,1.149,1.149,0,0,1-.249-.026,2.125,2.125,0,0,1-.289-.1,1.077,1.077,0,0,0-.278-.09.1.1,0,0,0-.088.043.4.4,0,0,0-.049.177h-.083V300h.083a2.144,2.144,0,0,0,.158.609.835.835,0,0,0,.3.336.793.793,0,0,0,.447.134.564.564,0,0,0,.444-.184.636.636,0,0,0,.163-.435.709.709,0,0,0-.062-.282.8.8,0,0,0-.192-.264,5.054,5.054,0,0,0-.481-.352,4.445,4.445,0,0,1-.559-.43,1.133,1.133,0,0,1-.252-.356,1.069,1.069,0,0,1-.086-.43,1.037,1.037,0,0,1,.253-.7.81.81,0,0,1,.643-.295,1.081,1.081,0,0,1,.517.15.462.462,0,0,0,.178.07.121.121,0,0,0,.1-.043.4.4,0,0,0,.06-.176h.083" transform="translate(-83.321 -282.244)" fill="#035fab"/>
      <path id="Path_10" data-name="Path 10" d="M98.183,315.3l.183-.125s-.036-.216-.219-.216a.445.445,0,0,0-.374.129.483.483,0,0,0-.168.329,1.1,1.1,0,0,0,.08.3c.015.059.063.172-.054.245s-.311.085-.362-.055a.551.551,0,0,1,.015-.321l-.241.314a.326.326,0,0,0,.307.2.5.5,0,0,0,.416-.146.363.363,0,0,0,.139-.278c0-.146-.124-.176-.124-.351,0-.1.007-.146.051-.19a.292.292,0,0,1,.241-.073C98.19,315.077,98.183,315.3,98.183,315.3Zm.644-.2.241-.015-.344.417.307.183-.183.044-.2-.132-.431.548s-.1.139-.066.219.4,0,.4,0-.508.216-.622.1c-.088-.087.015-.281.117-.409s.446-.556.446-.556l-.219-.1.19-.052.132.066Zm-.154,1.426-.11.22.153.095.117-.22Zm1.119-1.089.285-.49.475,1.411.242-.11.073.08-.651.4-.052-.073.228-.213-.373-1.133-.155.16Zm1.177-.044a.507.507,0,0,1-.219-.373.518.518,0,0,1,.343-.483c.169-.036.234.153.234.3a1.209,1.209,0,0,1-.161.417s.344.183.344.454a.476.476,0,0,1-.446.541c-.2,0-.292-.278-.292-.416A.765.765,0,0,1,100.97,315.392Zm.219-.439c0-.2-.088-.271-.168-.271s-.168.117-.168.241c0,.168.219.292.219.292A.549.549,0,0,0,101.189,314.953Zm-.131.475a.732.732,0,0,0-.161.351.322.322,0,0,0,.248.351.294.294,0,0,0,.234-.306C101.379,315.531,101.057,315.428,101.057,315.428Zm.629-.695a1.719,1.719,0,0,0,.08.527s.146-.336.293-.336c.241,0,.351.212.351.431s-.088.49-.337.512-.468-.293-.468-.841c0-.68.3-.944.493-.87l0,.2C101.942,314.265,101.745,314.419,101.686,314.733Zm.116.608c.03.256.2.38.315.38s.2-.139.2-.285-.125-.33-.242-.33S101.869,315.2,101.8,315.34Zm.476-1.4.073.373.526-.307s-.109.695-.145,1.017a.853.853,0,0,0,.145.563l.176-.183a.531.531,0,0,1-.212-.453c.022-.293.168-1.2.168-1.2s-.314.169-.476.249A.2.2,0,0,1,102.279,313.936Zm-6.223.387.2.007a.689.689,0,0,1,.124-.358.6.6,0,0,1,.606-.015s-.738.943-.9,1.1a.785.785,0,0,1-.49.154s.65.38.841.5a.475.475,0,0,0,.475.008l.256-.264-.219.022a.235.235,0,0,1-.088.154.152.152,0,0,1-.169.007l-.5-.293-.241-.094a1.143,1.143,0,0,0,.234-.081,2.663,2.663,0,0,0,.439-.445l.344.161.168-.022-.431-.226.475-.607s.11.066.27.146.081.285.081.285l.234-.117s.029-.116-.037-.146a6.537,6.537,0,0,0-.665-.351.889.889,0,0,0-.71-.007.614.614,0,0,0-.3.483" transform="translate(-88.708 -294.269)" fill="#035fab"/>
      <path id="Path_11" data-name="Path 11" d="M116.541,333.384a.4.4,0,1,1-.4.4A.4.4,0,0,1,116.541,333.384Zm0,.734a.338.338,0,1,0-.322-.337A.322.322,0,0,0,116.543,334.118Zm-.153-.57h.179c.106,0,.159.043.159.131a.119.119,0,0,1-.119.129l.132.206h-.081l-.129-.206h-.064v.206h-.076Zm.076.2h.091c.058,0,.095-.013.095-.073s-.047-.068-.095-.068h-.091v.141" transform="translate(-103.777 -308.675)" fill="#035fab"/>
      <g id="Group_5" data-name="Group 5" transform="translate(0)">
        <g id="Group_4" data-name="Group 4" clip-path="url(#clip-path)">
          <g id="Group_3" data-name="Group 3" transform="translate(0.053 0.001)">
            <path id="Path_12" data-name="Path 12" d="M80.586,264.314l0,0a9.174,9.174,0,0,0-1.691-1.131c-1.484-.824-7.436-2.442-7.436-9.054,0-3.014.958-4.563.958-8.51a26.092,26.092,0,0,0,8.173-3.346,26.1,26.1,0,0,0,8.172,3.346c0,3.947.959,5.5.959,8.51,0,6.613-5.953,8.23-7.436,9.054a9.165,9.165,0,0,0-1.692,1.132Zm0-23.658c-.006,0-5.083,3.15-9.56,3.883,0,4.571-1.1,6.363-1.1,9.853,0,7.655,7.363,9.487,8.828,10.329a10.521,10.521,0,0,1,1.831,1.466,10.526,10.526,0,0,1,1.831-1.466c1.465-.842,8.828-2.674,8.828-10.329,0-3.49-1.1-5.283-1.1-9.853-4.475-.732-9.554-3.88-9.56-3.882h0" transform="translate(-69.927 -240.656)" fill="#035fab"/>
          </g>
        </g>
      </g>
      <g id="Group_6" data-name="Group 6" transform="translate(0.053 0.001)">
        <path id="Path_13" data-name="Path 13" d="M80.586,264.314l0,0a9.174,9.174,0,0,0-1.691-1.131c-1.484-.824-7.436-2.442-7.436-9.054,0-3.014.958-4.563.958-8.51a26.092,26.092,0,0,0,8.173-3.346,26.1,26.1,0,0,0,8.172,3.346c0,3.947.959,5.5.959,8.51,0,6.613-5.953,8.23-7.436,9.054a9.165,9.165,0,0,0-1.692,1.132Zm0-23.658s-5.083,3.15-9.56,3.883c0,4.571-1.1,6.363-1.1,9.853,0,7.655,7.363,9.487,8.828,10.329a10.521,10.521,0,0,1,1.831,1.466,10.526,10.526,0,0,1,1.831-1.466c1.465-.842,8.828-2.674,8.828-10.329,0-3.49-1.1-5.283-1.1-9.853-4.475-.732-9.56-3.882-9.56-3.882Z" transform="translate(-69.927 -240.656)" fill="#035fab"/>
      </g>
    </g>
  </g>
</svg>
