<svg xmlns="http://www.w3.org/2000/svg" width="13" height="13" viewBox="0 0 13 13">
  <g id="Layer_2" data-name="Layer 2" transform="translate(-0.5)">
    <g id="invisible_box" data-name="invisible box">
      <rect id="Rectangle_1223" data-name="Rectangle 1223" width="13" height="13" transform="translate(0.5)" fill="none"/>
    </g>
    <g id="icons_Q2" data-name="icons Q2" transform="translate(1.06 1.329)">
      <path id="Path_8325" data-name="Path 8325" d="M15.006,9.9,4.78,5.054,4.538,5A.538.538,0,0,0,4,5.538l1.615,4.844L4,15.225a.538.538,0,0,0,.538.538l.242-.054,10.225-4.844a.538.538,0,0,0,0-.969ZM5.48,14.176,6.556,10.92H9.382a.538.538,0,1,0,0-1.076H6.556L5.48,6.588,13.5,10.382Z" transform="translate(-4 -5)" fill="#fff"/>
    </g>
  </g>
</svg>
